<?xml version="1.0" encoding="UTF-8" standalone="no"?>
<!-- Created with Inkscape (http://www.inkscape.org/) -->

<svg
   xmlns:dc="http://purl.org/dc/elements/1.1/"
   xmlns:cc="http://creativecommons.org/ns#"
   xmlns:rdf="http://www.w3.org/1999/02/22-rdf-syntax-ns#"
   xmlns:svg="http://www.w3.org/2000/svg"
   xmlns="http://www.w3.org/2000/svg"
   version="1.0"
   width="800"
   height="600"
   viewBox="0 0 800 600"
   id="Lager_1"
   xml:space="preserve"><metadata
   id="metadata3071"><rdf:RDF><cc:Work
       rdf:about=""><dc:format>image/svg+xml</dc:format><dc:type
         rdf:resource="http://purl.org/dc/dcmitype/StillImage" /><dc:title></dc:title></cc:Work></rdf:RDF></metadata><defs
   id="defs3069" />
<g
   id="Pod">
   <g
   transform="matrix(1.9183669,0,0,1.9183669,-2203.7015,-134.7408)"
   id="g3093">
      <path
   d="m 1265.609,309.634 c -0.295,-0.769 4.738,-10.556 11.185,-21.75 6.447,-11.193 15.091,-26.201 19.209,-33.352 4.118,-7.15 11.63,-20.201 16.693,-29 27.032,-46.983 36.66,-63.697 40.496,-70.296 2.333,-4.012 4.753,-7.128 5.379,-6.924 0.625,0.205 4.216,5.738 7.98,12.296 3.764,6.559 10.914,18.899 15.89,27.424 4.975,8.526 10.385,17.976 12.022,21.001 1.637,3.025 6.011,10.675 9.721,17 6.749,11.506 20.844,35.85 24.028,41.501 0.93,1.649 6.54,11.416 12.468,21.703 6.496,11.272 10.543,19.318 10.185,20.249 -0.53,1.381 -10.513,1.548 -92.656,1.548 -77.926,-10e-4 -92.146,-0.216 -92.6,-1.4 z"
   id="path3095"
   style="fill:#f1c50e" />
   </g>
   <g
   transform="matrix(0.9837698,0,0,0.9837698,-228.78608,10.635987)"
   id="g6291">
      <path
   d="m 434.448,494.556 c -17.126,-7.775 -25.646,-29.016 -18.46,-46.026 2.069,-4.896 24.106,-44.261 48.972,-87.48 24.865,-43.217 58.377,-101.453 74.469,-129.415 16.092,-27.96 38.662,-67.238 50.154,-87.286 11.493,-20.046 23.804,-39.191 27.359,-42.542 6.463,-6.095 16.913,-10.181 26.082,-10.201 7.358,-0.016 21.112,7.789 27.029,15.335 2.895,3.693 24.839,40.815 48.766,82.491 23.927,41.676 55.203,96.061 69.501,120.856 79.39,137.668 79.529,137.918 80.496,146.491 1.797,15.952 -6.885,31.275 -21.479,37.904 -7.362,3.343 -17.769,3.52 -206.303,3.52 -191.028,0 -198.855,-0.137 -206.586,-3.647 l 0,0 z m 384.334,-41.439 c 0.687,-1.789 -7.076,-17.223 -19.538,-38.847 -11.372,-19.734 -22.135,-38.47 -23.919,-41.635 -6.107,-10.838 -33.145,-57.541 -46.092,-79.612 -7.117,-12.134 -15.51,-26.81 -18.648,-32.613 -3.141,-5.803 -13.518,-23.931 -23.064,-40.285 -9.546,-16.355 -23.262,-40.029 -30.481,-52.61 -7.221,-12.581 -14.11,-23.197 -15.309,-23.588 -1.2,-0.391 -5.843,5.585 -10.318,13.284 -7.359,12.659 -25.83,44.72 -77.686,134.853 -9.713,16.881 -24.124,41.915 -32.024,55.631 -7.901,13.717 -24.483,42.508 -36.851,63.982 -12.367,21.474 -22.022,40.249 -21.457,41.724 0.872,2.271 28.15,2.682 177.639,2.682 157.581,10e-4 176.733,-0.319 177.748,-2.966 z"
   id="path3099"
   style="fill:#e83f40" />
   </g>
   <g
   transform="matrix(0.22125462,0,0,0.22125462,-1847.6384,871.89304)"
   id="child_x5F_2">
      
         <path
   d="m 10012.122,-1952.478 c 0.225,2.922 2.484,8.448 2.484,8.448 0,0 10.92,5.773 16.896,6.956 9.747,1.924 19.989,1.51 29.811,0 13.047,-2.013 37.764,-11.926 37.764,-11.926 l 32.298,-1.986 13.912,-7.459 5.963,-10.928 -2.485,-15.898 -5.963,-23.358 -0.993,-64.591 5.467,-69.561 -10.437,-50.688 c 0,0 2.659,-0.335 3.48,0.503 3.323,3.39 5.919,7.415 10.043,9.437 3.743,1.836 30.753,4.749 46.599,1.986 5.632,-0.98 11.855,-2.41 15.898,-6.453 4.043,-4.052 6.461,-15.907 6.461,-15.907 l 10.929,-3.972 24.85,85.468 6.452,54.651 -3.478,11.432 -17.885,10.434 -17.884,0.989 c 0,0 -16.781,6.629 -24.347,11.432 -5.27,3.337 -11.635,6.347 -14.415,11.926 -1.624,3.266 -2.146,7.68 -0.494,10.928 1.615,3.195 8.941,5.967 8.941,5.967 l 28.319,-2.489 65.094,-10.434 23.357,-1.492 c 0,0 6.373,-6.656 7.45,-10.928 1.545,-6.135 -1.986,-18.882 -1.986,-18.882 l -4.97,-15.898 -7.953,-58.138 -3.479,-55.648 -10.929,-44.226 c 0,0 9.41,-3.16 12.924,-6.453 2.648,-2.498 5.464,-9.445 5.464,-9.445 l -12.923,-36.767 c 0,0 8.121,-2.074 11.432,-4.476 2.948,-2.136 6.956,-8.448 6.956,-8.448 l -4.476,-5.464 -11.423,-27.824 c 0,0 0.874,-9.154 -0.503,-13.417 -0.548,-1.704 -2.976,-4.467 -2.976,-4.467 l -14.415,-45.214 -3.478,-10.938 -1.986,-10.928 -9.437,-28.822 c 0,0 1.827,-12.217 1.986,-18.379 0.149,-5.976 -1.792,-11.97 -0.998,-17.893 0.971,-7.265 6.956,-20.868 6.956,-20.868 0,0 -13.153,-9.286 -17.39,-15.898 -2.349,-3.664 -3.973,-12.42 -3.973,-12.42 0,0 6.585,-10.637 8.942,-16.401 3.654,-8.925 7.953,-27.824 7.953,-27.824 l 7.945,-91.921 c 0,0 2.472,-20.506 2.489,-30.808 0.03,-23.587 -5.465,-70.558 -5.465,-70.558 0,0 -2.621,-16.56 -6.461,-23.843 -6.789,-12.897 -28.328,-33.297 -28.328,-33.297 l -1.482,-5.464 c 0,0 8.624,-10.522 10.434,-16.896 0.9,-3.187 1.024,-6.788 0,-9.931 -0.962,-2.931 -5.473,-7.459 -5.473,-7.459 0,0 -0.503,-6.329 0,-9.437 0.927,-5.685 4.246,-10.77 5.473,-16.401 1.66,-7.645 2.984,-15.536 2.48,-23.349 -0.547,-8.501 -2.789,-16.94 -5.958,-24.849 -8.21,-20.453 -17.806,-41.445 -33.298,-57.14 -6.1,-6.179 -14.212,-10.372 -22.359,-13.409 -8.978,-3.354 -18.763,-5.711 -28.318,-4.97 -15.875,1.227 -38.709,11.847 -45.215,15.404 -4.56,2.49 -6.46,16.887 -6.46,16.887 l -7.452,4.476 c 0,0 -8.795,12.968 -10.933,20.374 -1.979,6.859 -2.357,14.274 -1.49,21.363 0.718,5.879 5.467,16.896 5.467,16.896 0,0 1.536,1.527 1.986,2.481 2.442,5.208 3.478,16.896 3.478,16.896 l 6.46,3.478 c 0,0 -5.381,16.552 -5.963,24.85 -0.124,1.774 0.69,3.743 1.988,4.961 0.761,0.724 1.939,0.874 2.981,0.998 1.816,0.212 5.467,-0.494 5.467,-0.494 0,0 -1.697,10.134 -0.499,10.928 h 8.944 c 0,0 -4.478,8.051 -3.479,8.448 0,0 4.606,1.112 6.46,2.48 1.517,1.13 3.325,2.595 3.478,4.476 0.168,2.066 -3.31,3.417 -2.981,5.464 0.576,3.584 4.551,6.179 7.952,7.45 9.149,3.443 29.313,-0.989 29.313,-0.989 l 8.45,12.915 v 20.374 l -8.947,6.462 -17.886,5.958 -11.927,22.36 -11.429,36.272 -8.446,19.879 -3.478,-0.998 -4.968,-18.379 -23.354,-33.297 -12.424,-14.406 -4.472,-1.492 -6.46,-19.871 -10.93,-16.896 -15.404,-5.464 h -2.485 l -21.364,-45.717 -9.938,3.981 8.944,24.346 -7.951,-3.981 -2.979,5.464 10.931,11.432 -1.489,11.926 4.471,10.928 -1.988,10.434 3.478,3.478 -2.482,18.388 11.924,11.432 10.931,10.928 3.478,6.956 8.448,17.885 -8.448,15.907 -5.464,19.871 11.926,9.446 4.968,9.437 v 6.462 l 8.944,9.437 14.905,23.852 11.926,21.363 11.927,10.434 9.438,1.492 -2.981,7.954 -5.963,81.486 v 43.228 l 3.977,9.94 -3.479,12.42 22.857,7.954 c 0.183,12.597 -0.83,25.176 -1.492,37.755 l -14.905,34.286 v 9.445 c 0,0 -9.051,10.77 -12.423,16.896 -3.947,7.159 -6.85,14.945 -8.944,22.854 -2.057,7.768 -3.478,23.852 -3.478,23.852 0,0 -4.246,6.471 -5.963,9.931 -3.172,6.391 -6.131,12.976 -7.949,19.88 -2.514,9.534 -3.975,29.316 -3.975,29.316 l -4.971,8.448 0.994,5.958 c 0,0 11.175,2.895 16.896,3.478 1.646,0.168 4.968,0 4.968,0 l 3.478,5.464 13.912,84.47 7.453,71.052 -8.446,27.33 -9.938,9.445 -54.655,25.335 c -19.31,9.474 -8.218,3.727 -9.935,18.381 l 0,0 z"
   id="path3055"
   style="stroke:#000000" />
      <g
   id="g3061">
         
            <path
   d="m 10139.213,-2815.162 c -0.911,15.554 -4.643,31.452 -2.374,46.309 0.946,5.332 6.46,14.91 6.46,14.91 0,0 -1.839,5.879 -3.479,8.448 -4.859,7.601 -14.578,11.697 -18.383,19.871 -1.691,3.637 -1.744,7.927 -1.492,11.926 5.089,16.64 10.602,32.494 6.956,50.184 0,0 -3.514,22.819 -6.956,33.792 -7.828,19.941 -21.597,33.024 -24.347,52.665 0,0 -0.128,17.187 -3.478,24.849 -7.671,15.422 -27.427,31.267 -34.782,32.794 0,0 -9.505,3.081 -14.409,2.984 -4.096,-0.088 -8.28,-1.112 -11.926,-2.984 -3.866,-1.986 -7.236,-5.041 -9.938,-8.448 -9.016,-11.378 -16.086,-24.743 -19.875,-38.752 -2.757,-12.385 0,-24.541 1.988,-36.775 0,0 2.467,-18.591 1.489,-27.824 -1.533,-14.503 -7.556,-28.168 -11.427,-42.231 -1.141,-4.149 -2.757,-8.183 -3.479,-12.429 -2.171,-12.756 -0.45,-25.971 -2.484,-38.753 -0.94,-5.914 -3.628,-11.467 -4.472,-17.39 -0.818,-10.399 2.613,-21.345 -0.496,-31.302 -3.046,-8.156 -5.644,-16.684 -5.467,-25.344 0,0 -1.77,-32.697 0.993,-48.692 0.907,-5.914 3.529,-14.133 7.278,-11.926 l 4.698,2.763 c 0,0 0.022,3.619 0.614,5.297 0.542,1.545 1.482,3.019 1.482,3.019 l 2.633,-1.033 -3.414,-5.5 -1.315,-1.783"
   id="path3057"
   style="fill:none;stroke:#ffffff" />
         <path
   d="m 10143.096,-2752.531 c 0,0 4.884,-5.8 5.669,-9.366 0.1,-7 -2.906,-13.886 -1.988,-20.868 0,0 0.869,-12.738 2.485,-18.882 2.591,-9.843 7.949,-18.75 11.427,-28.319 4.581,-12.597 12.42,-38.258 12.42,-38.258 l 1.986,-8.942 c 0.336,-1.571 1.624,-0.627 2.419,-0.936 l 0.883,-3.857 1.051,-8.086 c 0.962,-2.322 0.9,-2.772 1.509,-5.2 5.244,-2.692 3.62,-10.708 0.601,-11.14 l -3.689,-0.521 c -4.237,-0.609 -5.155,5.791 -2.454,10.01 2.057,1.403 0.855,3.46 0.521,5.799 l -1.051,7.203 -0.529,4.211 0.883,2.11"
   id="path3059"
   style="fill:none;stroke:#ffffff" />
      </g>
   </g>
</g>
</svg>